<svg width="71" height="59" viewBox="0 0 71 59" fill="none" xmlns="http://www.w3.org/2000/svg">
<path d="M36.9369 8.22773C36.9369 12.7609 40.6273 16.4549 45.1676 16.4549C49.7044 16.4549 53.3997 12.7609 53.3997 8.22773C53.3997 3.68961 49.7044 7.62939e-05 45.1676 7.62939e-05C40.6273 7.62939e-05 36.9369 3.68961 36.9369 8.22773ZM39.239 8.22773C39.239 4.96114 41.9008 2.30465 45.1676 2.30465C48.4331 2.30465 51.0936 4.96114 51.0936 8.22773C51.0936 11.4943 48.4331 14.1513 45.1676 14.1513C41.9008 14.1513 39.239 11.4943 39.239 8.22773ZM17.1313 8.22773C17.1313 12.7609 20.8222 16.4549 25.362 16.4549C29.8992 16.4549 33.5941 12.7609 33.5941 8.22773C33.5941 3.68961 29.8992 7.62939e-05 25.362 7.62939e-05C20.8222 7.62939e-05 17.1313 3.68961 17.1313 8.22773ZM19.4334 8.22773C19.4334 4.96114 22.0952 2.30465 25.362 2.30465C28.6275 2.30465 31.288 4.96114 31.288 8.22773C31.288 11.4943 28.6275 14.1513 25.362 14.1513C22.0952 14.1513 19.4334 11.4943 19.4334 8.22773ZM41.853 8.2264C41.853 10.0535 43.3396 11.539 45.1663 11.539C46.9934 11.539 48.48 10.0535 48.48 8.2264C48.48 7.91242 48.422 7.61408 48.3393 7.32601C48.0931 7.44123 47.8196 7.51091 47.5292 7.51091C46.4644 7.51091 45.5953 6.64357 45.5953 5.57927C45.5953 5.36534 45.6386 5.16257 45.7034 4.97008C45.5269 4.94105 45.3504 4.91604 45.1663 4.91604C43.3396 4.91604 41.853 6.40061 41.853 8.2264ZM22.0474 8.2264C22.0474 10.0535 23.534 11.539 25.3607 11.539C27.1883 11.539 28.6744 10.0535 28.6744 8.2264C28.6744 7.91242 28.6168 7.61408 28.5341 7.32601C28.2875 7.44123 28.014 7.51091 27.724 7.51091C26.6588 7.51091 25.7897 6.64357 25.7897 5.57927C25.7897 5.36534 25.8334 5.16257 25.8982 4.97008C25.7213 4.94105 25.5448 4.91604 25.3607 4.91604C23.534 4.91604 22.0474 6.40061 22.0474 8.2264ZM53.8059 19.3316L53.7822 19.3491C54.3792 19.6595 54.9708 19.9766 55.5325 20.3187C57.9642 21.8046 59.9226 23.5151 61.3646 25.3838L66.0197 21.8836L65.328 20.9618C63.7145 18.8153 61.2439 17.684 58.7434 17.6845C57.0218 17.6845 55.2858 18.2209 53.8059 19.3316ZM5.20387 20.9618L4.51171 21.8836L9.16686 25.3838C10.6088 23.5151 12.5673 21.8046 14.9994 20.3187C15.5607 19.9766 16.1523 19.6595 16.7497 19.3491L16.726 19.3316C15.2461 18.2209 13.5101 17.684 11.788 17.6845C9.28796 17.6845 6.81739 18.8158 5.20387 20.9618ZM16.4338 23.0712C11.763 25.9224 9.19055 29.5901 9.19055 33.3975C9.19055 35.7052 10.1481 37.9571 11.9279 40.0111C13.0646 39.5998 14.2706 39.3742 15.5164 39.3742C18.3208 39.3742 20.9602 40.4649 22.954 42.4519C24.3263 43.827 25.2695 45.5407 25.7204 47.3902C28.7236 48.0882 31.9399 48.4665 35.2657 48.4665C38.5915 48.4665 41.8079 48.0882 44.8115 47.3902C45.2624 45.5407 46.2056 43.827 47.5783 42.4519C49.5717 40.4649 52.2111 39.3742 55.0155 39.3742C56.2608 39.3742 57.4677 39.5998 58.6036 40.0111C60.3838 37.9571 61.3414 35.7052 61.3414 33.3975C61.3414 29.5901 58.7689 25.9224 54.0981 23.0712C49.0985 20.0176 42.4111 18.3357 35.2657 18.3357C28.1213 18.3357 21.4339 20.0176 16.4338 23.0712ZM29.4157 24.7724H41.1162C41.1153 27.9961 38.4901 30.6186 35.2657 30.6186C32.0418 30.6186 29.4171 27.9961 29.4157 24.7724ZM61.6961 25.8371C63.3727 28.1716 64.2632 30.7334 64.2632 33.3975C64.2632 33.9397 64.2194 34.4748 64.147 35.0063C63.8405 37.2885 62.8718 39.472 61.3101 41.4756C61.7073 41.7748 62.0934 42.0928 62.4504 42.451C63.7865 43.785 64.7074 45.4206 65.1752 47.2008L65.6873 46.53C67.0229 44.7832 67.5971 42.6216 67.304 40.443C67.0274 38.3747 65.9965 36.5341 64.3959 35.2121L70.5323 35.2068V34.0563C70.5323 29.5226 66.8379 25.8371 62.2976 25.8371H61.6961ZM8.23431 25.8371C3.694 25.8371 0 29.5226 0 34.0563V35.2068L6.13597 35.2121C4.53584 36.5341 3.5041 38.3747 3.2275 40.443C2.93527 42.6216 3.50856 44.7832 4.84461 46.53L5.35668 47.2008C5.82452 45.4206 6.74501 43.785 8.08105 42.451C8.43807 42.0928 8.82459 41.7748 9.22183 41.4756C7.66058 39.472 6.69139 37.2885 6.38486 35.0063C6.31247 34.4748 6.26868 33.9397 6.26868 33.3975C6.26868 30.7334 7.15922 28.1716 8.83531 25.8371H8.23431ZM49.1963 44.0664C47.522 45.7426 46.6493 48.0619 46.8116 50.4379L46.9487 52.4803L48.6244 51.3012C49.8223 50.4576 51.1092 49.9913 52.2545 49.9913C52.817 49.9913 53.6173 50.1163 54.2022 50.7001C55.3301 51.8282 55.078 54.1726 53.5981 56.2735L52.4185 57.9474L54.4632 58.0859C54.6518 58.0966 54.8345 58.106 55.0199 58.106C57.2211 58.106 59.2855 57.2525 60.8346 55.7018C62.3896 54.1471 63.2467 52.0819 63.2467 49.8859C63.2467 47.6849 62.3896 45.6211 60.8346 44.0664C59.2832 42.5153 57.2153 41.6587 55.0155 41.6587C52.817 41.6587 50.7522 42.5153 49.1963 44.0664ZM9.69726 44.0664C8.14271 45.6211 7.28568 47.6849 7.28568 49.8859C7.28568 52.0819 8.14271 54.1471 9.69726 55.7018C11.2464 57.2525 13.3108 58.106 15.5115 58.106C15.6974 58.106 15.8801 58.0966 16.0687 58.0859L18.1134 57.9474L16.9338 56.2735C15.4539 54.1726 15.2014 51.8282 16.3301 50.7001C16.9146 50.1163 17.7149 49.9913 18.2779 49.9913C19.4227 49.9913 20.7096 50.4576 21.908 51.3012L23.5832 52.4803L23.7203 50.4379C23.8826 48.0619 23.0094 45.7426 21.3356 44.0664C19.7797 42.5153 17.7149 41.6587 15.5164 41.6587C13.3166 41.6587 11.2482 42.5153 9.69726 44.0664Z" fill="url(#paint0_linear_272_3101)"/>
<defs>
<linearGradient id="paint0_linear_272_3101" x1="-8.98143e-05" y1="29.0532" x2="70.5321" y2="29.0532" gradientUnits="userSpaceOnUse">
<stop stop-color="#FE743E"/>
<stop offset="1" stop-color="#FE3254"/>
</linearGradient>
</defs>
</svg>
